<svg id="svg" version="1.1" width="400" height="400" viewBox="0 0 400 400" xmlns="http://www.w3.org/2000/svg" xmlns:xlink="http://www.w3.org/1999/xlink" ><g id="svgg"><path id="path0" d="M188.400 65.610 C 185.430 66.019,181.560 66.738,179.800 67.208 C 174.659 68.580,168.665 70.471,167.800 70.995 C 167.360 71.261,166.280 71.714,165.400 72.002 C 157.647 74.536,143.546 84.366,135.271 93.004 L 131.542 96.897 129.671 96.649 C 110.748 94.139,96.810 95.139,83.400 99.968 C 77.546 102.077,76.730 102.416,72.852 104.360 C 48.490 116.572,31.301 138.627,25.436 165.200 C 21.941 181.030,23.589 202.833,29.238 215.511 C 29.657 216.452,30.000 217.392,30.000 217.600 C 30.000 218.069,34.519 227.281,35.689 229.200 C 44.128 243.028,55.405 253.994,69.117 261.705 C 70.941 262.731,73.911 264.217,75.717 265.008 C 93.471 272.785,93.437 272.782,153.857 272.792 C 198.462 272.800,201.134 272.839,201.457 273.500 C 201.646 273.885,201.890 286.350,202.000 301.200 L 202.200 328.200 203.319 329.848 C 206.443 334.450,212.479 335.777,218.112 333.099 C 219.383 332.495,220.520 332.000,220.637 332.000 C 220.754 332.000,222.054 331.422,223.525 330.716 C 241.890 321.903,258.683 306.804,271.036 288.000 C 274.164 283.238,274.280 283.046,276.961 278.168 C 280.091 272.475,279.508 272.801,286.570 272.796 C 292.100 272.792,303.176 271.909,303.987 271.408 C 304.175 271.292,305.739 270.913,307.464 270.565 C 310.606 269.931,316.695 268.045,319.060 266.972 C 319.754 266.657,320.459 266.400,320.629 266.400 C 321.010 266.400,325.838 264.159,327.200 263.350 C 327.750 263.024,328.809 262.484,329.554 262.150 C 330.299 261.817,331.379 261.226,331.954 260.837 C 332.529 260.447,334.440 259.169,336.200 257.996 C 348.600 249.731,359.237 238.072,365.392 226.000 C 366.233 224.350,367.072 222.730,367.255 222.400 C 369.640 218.112,373.217 207.279,374.255 201.200 C 374.574 199.330,375.042 196.720,375.294 195.400 C 375.898 192.240,375.894 175.731,375.288 172.600 C 375.033 171.280,374.556 168.614,374.228 166.676 C 373.161 160.376,369.733 150.340,366.619 144.400 C 363.895 139.204,363.262 138.172,358.521 131.200 C 353.901 124.406,343.823 114.876,335.600 109.525 C 331.678 106.973,322.284 102.000,321.386 102.000 C 321.240 102.000,320.554 101.734,319.860 101.409 C 309.595 96.598,288.676 93.912,276.165 95.798 C 268.901 96.893,269.157 96.963,265.004 92.700 C 259.138 86.677,253.691 82.184,248.400 79.003 C 246.970 78.144,245.530 77.223,245.200 76.956 C 244.437 76.340,235.914 72.005,235.460 72.002 C 235.274 72.001,234.554 71.733,233.860 71.407 C 222.759 66.188,202.743 63.636,188.400 65.610 M206.800 84.789 C 221.702 86.869,233.860 91.739,242.646 99.149 C 243.332 99.727,244.718 100.830,245.727 101.600 C 248.307 103.569,248.784 105.029,247.140 105.925 C 242.550 108.431,234.625 114.239,231.056 117.713 C 227.465 121.209,227.101 121.273,221.481 119.393 C 209.139 115.266,187.340 117.619,181.621 123.696 C 174.199 131.580,184.120 144.106,193.800 139.073 C 194.460 138.730,196.828 138.078,199.063 137.625 C 215.384 134.312,231.102 142.438,238.804 158.170 C 242.946 166.630,249.440 168.786,255.270 163.637 C 261.492 158.141,258.650 148.779,246.381 134.359 C 244.337 131.956,245.102 130.951,252.989 125.683 C 277.224 109.492,310.375 111.974,332.036 131.600 C 339.846 138.676,345.385 145.859,349.155 153.800 C 349.886 155.340,350.664 156.943,350.884 157.362 C 357.463 169.893,357.465 198.445,350.888 210.617 C 350.655 211.047,349.725 212.930,348.822 214.800 C 336.562 240.182,306.639 256.659,279.839 252.785 C 269.708 251.321,267.786 252.436,262.743 262.711 C 261.153 265.950,259.405 269.320,258.859 270.200 C 258.312 271.080,257.474 272.430,256.998 273.200 C 248.350 287.176,238.484 297.833,226.501 306.141 C 221.150 309.851,221.602 311.860,221.591 284.286 C 221.581 257.911,221.704 258.972,218.310 255.893 C 215.172 253.046,218.478 253.200,160.411 253.200 C 101.494 253.200,103.284 253.273,92.800 250.439 C 91.150 249.993,89.044 249.262,88.119 248.814 C 87.195 248.366,86.226 248.000,85.967 248.000 C 85.707 248.000,84.933 247.661,84.247 247.246 C 83.561 246.831,82.601 246.370,82.113 246.223 C 75.566 244.241,62.720 233.235,55.375 223.314 C 34.044 194.502,42.168 147.877,72.000 127.896 C 72.550 127.528,73.789 126.668,74.754 125.986 C 77.006 124.394,84.123 120.678,86.200 120.010 C 87.080 119.727,87.990 119.346,88.223 119.163 C 88.456 118.980,89.626 118.573,90.823 118.259 C 92.020 117.946,93.900 117.401,95.000 117.049 C 100.018 115.444,114.951 114.154,118.254 115.040 C 119.652 115.415,120.014 116.775,119.149 118.400 C 117.114 122.221,114.816 129.772,113.311 137.586 C 112.038 144.193,112.548 143.580,106.800 145.398 C 98.554 148.005,91.908 151.908,89.408 155.611 C 87.647 158.219,87.627 162.895,89.366 165.643 C 92.543 170.665,98.358 171.765,104.000 168.411 C 116.395 161.043,131.112 160.409,141.200 166.809 C 141.530 167.019,142.340 167.490,143.000 167.857 C 145.897 169.467,150.232 173.537,153.501 177.718 C 158.904 184.626,167.500 184.078,171.044 176.600 C 173.398 171.633,171.136 166.659,162.768 158.400 C 156.114 151.834,144.500 145.432,137.000 144.196 C 132.201 143.406,132.043 143.064,133.634 136.916 C 137.807 120.790,147.864 105.592,159.363 98.036 C 159.895 97.686,161.192 96.797,162.246 96.059 C 164.485 94.492,171.614 90.683,173.851 89.860 C 174.703 89.546,176.120 89.015,177.000 88.679 C 181.429 86.989,187.950 85.503,194.600 84.670 C 197.027 84.366,204.275 84.437,206.800 84.789 M281.076 155.800 C 277.104 156.809,274.434 159.874,274.017 163.905 C 273.309 170.734,275.271 180.413,278.697 187.000 C 279.040 187.660,279.595 188.740,279.929 189.400 C 280.264 190.060,280.934 191.140,281.418 191.800 C 283.315 194.387,282.231 197.294,277.539 202.200 C 276.697 203.080,276.007 203.916,276.004 204.057 C 275.996 204.544,269.351 209.957,266.778 211.573 C 254.288 219.417,238.484 221.310,225.000 216.578 C 221.487 215.345,221.390 214.791,223.993 210.841 C 229.560 202.392,233.341 185.489,230.759 180.594 C 225.599 170.813,213.035 173.839,211.970 185.118 C 211.473 190.383,208.903 198.477,206.990 200.800 C 206.719 201.130,206.220 201.947,205.882 202.615 C 203.681 206.967,193.951 214.775,188.789 216.332 C 188.025 216.563,186.590 217.048,185.600 217.410 C 184.399 217.850,181.670 218.172,177.400 218.376 C 167.305 218.859,163.600 221.623,163.600 228.673 C 163.600 234.504,167.372 237.954,174.118 238.294 C 183.729 238.779,198.855 235.032,203.600 230.991 C 205.451 229.414,206.972 229.244,208.627 230.427 C 213.745 234.087,223.979 237.572,232.000 238.384 C 234.310 238.618,237.083 238.893,238.163 238.994 C 257.594 240.811,283.598 228.400,295.400 211.676 C 297.817 208.251,298.625 207.779,300.315 208.807 C 306.929 212.829,321.533 215.374,325.792 213.247 C 336.330 207.984,332.570 195.039,320.270 194.236 C 306.020 193.306,294.469 181.902,293.718 168.022 C 293.209 158.611,288.382 153.945,281.076 155.800 M69.904 190.949 C 64.151 193.079,61.284 199.058,63.555 204.192 C 65.625 208.872,74.088 217.150,80.368 220.640 C 84.819 223.113,86.033 223.727,88.200 224.602 C 100.949 229.752,118.290 229.901,129.460 224.958 C 130.154 224.651,130.862 224.400,131.034 224.400 C 132.383 224.400,142.626 218.106,144.474 216.142 C 152.847 207.244,141.373 194.862,131.121 201.732 C 118.561 210.149,102.998 211.278,92.131 204.560 C 86.980 201.375,84.197 199.010,80.224 194.440 C 77.432 191.229,73.103 189.765,69.904 190.949 " stroke="none" fill="#fa5560" fill-rule="evenodd"></path><path id="path1" d="M0.000 200.000 L 0.000 400.000 200.000 400.000 L 400.000 400.000 400.000 200.000 L 400.000 0.000 200.000 0.000 L 0.000 0.000 0.000 200.000 M213.103 65.755 C 219.458 66.682,229.797 69.497,233.860 71.407 C 234.554 71.733,235.274 72.001,235.460 72.002 C 235.914 72.005,244.437 76.340,245.200 76.956 C 245.530 77.223,246.970 78.144,248.400 79.003 C 253.691 82.184,259.138 86.677,265.004 92.700 C 269.157 96.963,268.901 96.893,276.165 95.798 C 288.676 93.912,309.595 96.598,319.860 101.409 C 320.554 101.734,321.240 102.000,321.386 102.000 C 322.284 102.000,331.678 106.973,335.600 109.525 C 343.823 114.876,353.901 124.406,358.521 131.200 C 363.262 138.172,363.895 139.204,366.619 144.400 C 369.733 150.340,373.161 160.376,374.228 166.676 C 374.556 168.614,375.033 171.280,375.288 172.600 C 375.894 175.731,375.898 192.240,375.294 195.400 C 375.042 196.720,374.574 199.330,374.255 201.200 C 373.217 207.279,369.640 218.112,367.255 222.400 C 367.072 222.730,366.233 224.350,365.392 226.000 C 359.237 238.072,348.600 249.731,336.200 257.996 C 334.440 259.169,332.529 260.447,331.954 260.837 C 331.379 261.226,330.299 261.817,329.554 262.150 C 328.809 262.484,327.750 263.024,327.200 263.350 C 325.838 264.159,321.010 266.400,320.629 266.400 C 320.459 266.400,319.754 266.657,319.060 266.972 C 316.695 268.045,310.606 269.931,307.464 270.565 C 305.739 270.913,304.175 271.292,303.987 271.408 C 303.176 271.909,292.100 272.792,286.570 272.796 C 279.508 272.801,280.091 272.475,276.961 278.168 C 274.280 283.046,274.164 283.238,271.036 288.000 C 258.683 306.804,241.890 321.903,223.525 330.716 C 222.054 331.422,220.754 332.000,220.637 332.000 C 220.520 332.000,219.383 332.495,218.112 333.099 C 212.479 335.777,206.443 334.450,203.319 329.848 L 202.200 328.200 202.000 301.200 C 201.890 286.350,201.646 273.885,201.457 273.500 C 201.134 272.839,198.462 272.800,153.857 272.792 C 96.579 272.782,93.948 272.580,80.800 267.185 C 60.764 258.963,46.546 246.991,35.689 229.200 C 34.519 227.281,30.000 218.069,30.000 217.600 C 30.000 217.392,29.657 216.452,29.238 215.511 C 21.797 198.809,21.741 171.616,29.109 152.600 C 37.966 129.739,57.503 109.615,78.452 101.775 C 96.371 95.068,108.560 93.849,129.671 96.649 L 131.542 96.897 135.271 93.004 C 143.546 84.366,157.647 74.536,165.400 72.002 C 166.280 71.714,167.360 71.261,167.800 70.995 C 168.665 70.471,174.659 68.580,179.800 67.208 C 188.454 64.898,202.902 64.268,213.103 65.755 M194.600 84.670 C 187.950 85.503,181.429 86.989,177.000 88.679 C 176.120 89.015,174.703 89.546,173.851 89.860 C 171.614 90.683,164.485 94.492,162.246 96.059 C 161.192 96.797,159.895 97.686,159.363 98.036 C 147.864 105.592,137.807 120.790,133.634 136.916 C 132.043 143.064,132.201 143.406,137.000 144.196 C 144.500 145.432,156.114 151.834,162.768 158.400 C 171.136 166.659,173.398 171.633,171.044 176.600 C 167.500 184.078,158.904 184.626,153.501 177.718 C 150.232 173.537,145.897 169.467,143.000 167.857 C 142.340 167.490,141.530 167.019,141.200 166.809 C 131.112 160.409,116.395 161.043,104.000 168.411 C 92.122 175.471,81.549 160.674,92.538 152.369 C 96.220 149.586,101.103 147.199,106.800 145.398 C 112.548 143.580,112.038 144.193,113.311 137.586 C 114.816 129.772,117.114 122.221,119.149 118.400 C 120.014 116.775,119.652 115.415,118.254 115.040 C 114.951 114.154,100.018 115.444,95.000 117.049 C 93.900 117.401,92.020 117.946,90.823 118.259 C 89.626 118.573,88.456 118.980,88.223 119.163 C 87.990 119.346,87.080 119.727,86.200 120.010 C 84.123 120.678,77.006 124.394,74.754 125.986 C 73.789 126.668,72.550 127.528,72.000 127.896 C 45.601 145.577,35.724 183.359,49.698 213.200 C 56.157 226.991,72.043 243.175,82.113 246.223 C 82.601 246.370,83.561 246.831,84.247 247.246 C 84.933 247.661,85.707 248.000,85.967 248.000 C 86.226 248.000,87.195 248.366,88.119 248.814 C 89.044 249.262,91.150 249.993,92.800 250.439 C 103.284 253.273,101.494 253.200,160.411 253.200 C 218.478 253.200,215.172 253.046,218.310 255.893 C 221.704 258.972,221.581 257.911,221.591 284.286 C 221.602 311.860,221.150 309.851,226.501 306.141 C 238.484 297.833,248.350 287.176,256.998 273.200 C 257.474 272.430,258.312 271.080,258.859 270.200 C 259.405 269.320,261.153 265.950,262.743 262.711 C 267.786 252.436,269.708 251.321,279.839 252.785 C 306.639 256.659,336.562 240.182,348.822 214.800 C 349.725 212.930,350.655 211.047,350.888 210.617 C 357.465 198.445,357.463 169.893,350.884 157.362 C 350.664 156.943,349.886 155.340,349.155 153.800 C 345.385 145.859,339.846 138.676,332.036 131.600 C 310.375 111.974,277.224 109.492,252.989 125.683 C 245.102 130.951,244.337 131.956,246.381 134.359 C 258.650 148.779,261.492 158.141,255.270 163.637 C 249.440 168.786,242.946 166.630,238.804 158.170 C 231.102 142.438,215.384 134.312,199.063 137.625 C 196.828 138.078,194.460 138.730,193.800 139.073 C 184.120 144.106,174.199 131.580,181.621 123.696 C 187.340 117.619,209.139 115.266,221.481 119.393 C 227.101 121.273,227.465 121.209,231.056 117.713 C 234.625 114.239,242.550 108.431,247.140 105.925 C 248.784 105.029,248.307 103.569,245.727 101.600 C 244.718 100.830,243.332 99.727,242.646 99.149 C 232.234 90.368,214.630 84.310,200.000 84.473 C 197.690 84.499,195.260 84.588,194.600 84.670 M288.236 156.534 C 291.879 158.477,293.371 161.604,293.718 168.022 C 294.469 181.902,306.020 193.306,320.270 194.236 C 332.570 195.039,336.330 207.984,325.792 213.247 C 321.533 215.374,306.929 212.829,300.315 208.807 C 298.625 207.779,297.817 208.251,295.400 211.676 C 283.598 228.400,257.594 240.811,238.163 238.994 C 237.083 238.893,234.310 238.618,232.000 238.384 C 223.979 237.572,213.745 234.087,208.627 230.427 C 206.972 229.244,205.451 229.414,203.600 230.991 C 198.855 235.032,183.729 238.779,174.118 238.294 C 167.372 237.954,163.600 234.504,163.600 228.673 C 163.600 221.623,167.305 218.859,177.400 218.376 C 181.670 218.172,184.399 217.850,185.600 217.410 C 186.590 217.048,188.025 216.563,188.789 216.332 C 193.951 214.775,203.681 206.967,205.882 202.615 C 206.220 201.947,206.719 201.130,206.990 200.800 C 208.903 198.477,211.473 190.383,211.970 185.118 C 213.035 173.839,225.599 170.813,230.759 180.594 C 233.341 185.489,229.560 202.392,223.993 210.841 C 221.390 214.791,221.487 215.345,225.000 216.578 C 238.484 221.310,254.288 219.417,266.778 211.573 C 269.351 209.957,275.996 204.544,276.004 204.057 C 276.007 203.916,276.697 203.080,277.539 202.200 C 282.231 197.294,283.315 194.387,281.418 191.800 C 280.934 191.140,280.264 190.060,279.929 189.400 C 279.595 188.740,279.040 187.660,278.697 187.000 C 275.271 180.413,273.309 170.734,274.017 163.905 C 274.700 157.305,282.298 153.367,288.236 156.534 M76.953 191.755 C 77.911 192.264,79.382 193.472,80.224 194.440 C 84.197 199.010,86.980 201.375,92.131 204.560 C 102.998 211.278,118.561 210.149,131.121 201.732 C 141.373 194.862,152.847 207.244,144.474 216.142 C 142.626 218.106,132.383 224.400,131.034 224.400 C 130.862 224.400,130.154 224.651,129.460 224.958 C 118.290 229.901,100.949 229.752,88.200 224.602 C 86.033 223.727,84.819 223.113,80.368 220.640 C 74.088 217.150,65.625 208.872,63.555 204.192 C 59.950 196.042,69.079 187.568,76.953 191.755 " stroke="none" fill="#fcfbfb" fill-rule="evenodd"></path></g></svg>