<svg id="svg" version="1.1" width="400" height="400" viewBox="0 0 400 400" xmlns="http://www.w3.org/2000/svg" xmlns:xlink="http://www.w3.org/1999/xlink" ><g id="svgg"><path id="path0" d="M97.000 218.462 C 89.200 221.052,84.406 228.928,85.668 237.080 C 86.403 241.833,88.357 245.245,93.522 250.800 C 94.033 251.350,94.916 252.610,95.484 253.600 C 99.383 260.395,101.010 262.164,105.383 264.361 C 112.360 267.867,111.054 273.774,103.089 274.733 C 94.323 275.789,87.490 272.179,81.582 263.373 C 75.104 253.718,67.536 251.485,57.400 256.236 C 44.836 262.126,35.533 264.000,18.861 264.000 L 9.898 264.000 10.161 265.644 C 10.305 266.547,10.778 268.021,11.212 268.919 C 11.645 269.816,12.000 270.789,12.000 271.081 C 12.000 271.372,12.180 271.968,12.400 272.405 C 12.620 272.842,12.980 273.558,13.200 273.995 C 13.420 274.432,13.600 275.062,13.600 275.395 C 13.600 275.728,13.747 276.000,13.928 276.000 C 14.108 276.000,14.500 276.900,14.800 278.000 C 15.100 279.100,15.492 280.000,15.672 280.000 C 15.853 280.000,16.000 280.360,16.000 280.800 C 16.000 281.240,16.180 281.600,16.400 281.600 C 16.620 281.600,16.800 281.960,16.800 282.400 C 16.800 282.840,16.980 283.200,17.200 283.200 C 17.420 283.200,17.600 283.472,17.600 283.805 C 17.600 284.138,17.760 284.723,17.956 285.105 C 18.152 285.487,18.737 286.700,19.256 287.800 C 19.775 288.900,20.335 289.860,20.500 289.933 C 20.665 290.007,20.800 290.412,20.800 290.833 C 20.800 291.255,20.980 291.600,21.200 291.600 C 21.420 291.600,21.600 291.960,21.600 292.400 C 21.600 292.840,21.780 293.200,22.000 293.200 C 22.220 293.200,22.400 293.436,22.400 293.725 C 22.400 294.013,22.760 294.636,23.200 295.108 C 23.640 295.580,24.000 296.244,24.000 296.583 C 24.000 296.922,24.180 297.200,24.400 297.200 C 24.620 297.200,24.800 297.560,24.800 298.000 C 24.800 298.440,24.980 298.800,25.200 298.800 C 25.420 298.800,25.600 299.078,25.600 299.417 C 25.600 299.756,25.945 300.404,26.367 300.856 C 26.788 301.309,27.248 302.135,27.387 302.692 C 27.654 303.755,30.708 308.504,31.272 308.733 C 31.453 308.807,31.600 309.172,31.600 309.545 C 31.600 309.918,31.960 310.483,32.400 310.800 C 32.840 311.117,33.200 311.657,33.200 312.000 C 33.200 312.343,33.560 312.883,34.000 313.200 C 34.440 313.517,34.800 313.962,34.801 314.188 C 34.801 314.415,35.341 315.230,36.000 316.000 C 36.659 316.770,37.199 317.585,37.199 317.812 C 37.200 318.038,37.560 318.483,38.000 318.800 C 38.440 319.117,38.800 319.564,38.800 319.793 C 38.800 320.169,40.526 322.347,42.600 324.585 C 43.040 325.060,43.940 326.248,44.600 327.224 C 45.259 328.201,46.250 329.450,46.801 330.000 C 47.352 330.550,48.328 331.704,48.971 332.564 C 49.613 333.424,51.839 335.788,53.917 337.817 C 58.633 342.421,59.409 343.197,62.989 346.887 C 64.581 348.528,66.584 350.394,67.441 351.034 C 68.299 351.674,69.450 352.655,70.000 353.214 C 70.550 353.773,71.630 354.673,72.400 355.212 C 73.170 355.752,74.423 356.780,75.183 357.497 C 75.944 358.214,76.759 358.800,76.995 358.800 C 77.231 358.800,77.683 359.160,78.000 359.600 C 78.317 360.040,78.807 360.400,79.088 360.400 C 79.370 360.400,79.600 360.580,79.600 360.800 C 79.600 361.020,79.830 361.200,80.112 361.200 C 80.393 361.200,80.883 361.560,81.200 362.000 C 81.517 362.440,82.007 362.800,82.288 362.800 C 82.570 362.800,82.800 362.980,82.800 363.200 C 82.800 363.420,83.070 363.600,83.400 363.600 C 83.730 363.600,84.000 363.750,84.000 363.932 C 84.000 364.115,84.495 364.519,85.100 364.830 C 85.705 365.140,86.491 365.711,86.847 366.097 C 87.203 366.484,87.748 366.800,88.059 366.800 C 88.369 366.800,88.883 367.160,89.200 367.600 C 89.517 368.040,90.057 368.400,90.400 368.400 C 90.743 368.400,91.283 368.760,91.600 369.200 C 91.917 369.640,92.414 370.000,92.705 370.000 C 92.996 370.000,93.594 370.336,94.034 370.746 C 94.475 371.157,95.682 371.919,96.718 372.441 C 97.753 372.962,98.690 373.502,98.800 373.639 C 99.168 374.099,101.553 375.200,102.180 375.200 C 102.521 375.200,102.800 375.380,102.800 375.600 C 102.800 375.820,103.078 376.000,103.417 376.000 C 103.756 376.000,104.420 376.360,104.892 376.800 C 105.364 377.240,105.987 377.600,106.275 377.600 C 106.564 377.600,106.800 377.780,106.800 378.000 C 106.800 378.220,107.160 378.400,107.600 378.400 C 108.040 378.400,108.400 378.580,108.400 378.800 C 108.400 379.020,108.760 379.200,109.200 379.200 C 109.640 379.200,110.000 379.380,110.000 379.600 C 110.000 379.820,110.360 380.000,110.800 380.000 C 111.240 380.000,111.600 380.180,111.600 380.400 C 111.600 380.620,111.960 380.800,112.400 380.800 C 112.840 380.800,113.200 380.980,113.200 381.200 C 113.200 381.420,113.549 381.600,113.976 381.600 C 114.403 381.600,114.864 381.780,115.000 382.000 C 115.136 382.220,115.597 382.400,116.024 382.400 C 116.451 382.400,116.800 382.580,116.800 382.800 C 116.800 383.020,117.160 383.200,117.600 383.200 C 118.040 383.200,118.400 383.380,118.400 383.600 C 118.400 383.820,118.760 384.000,119.200 384.000 C 119.640 384.000,120.000 384.147,120.000 384.328 C 120.000 384.508,120.900 384.900,122.000 385.200 C 123.100 385.500,124.000 385.892,124.000 386.072 C 124.000 386.253,124.279 386.400,124.619 386.400 C 124.960 386.400,125.984 386.760,126.894 387.200 C 127.805 387.640,128.876 388.000,129.275 388.000 C 129.674 388.000,130.000 388.180,130.000 388.400 C 130.000 388.620,130.414 388.800,130.920 388.800 C 131.426 388.800,132.011 388.949,132.220 389.130 C 132.429 389.312,133.410 389.705,134.400 390.002 C 135.390 390.300,136.392 390.686,136.626 390.860 C 136.861 391.034,138.076 391.296,139.326 391.443 C 140.577 391.590,141.600 391.865,141.600 392.055 C 141.600 392.245,142.140 392.400,142.800 392.400 C 143.460 392.400,144.000 392.580,144.000 392.800 C 144.000 393.020,144.619 393.200,145.376 393.200 C 146.133 393.200,146.864 393.380,147.000 393.600 C 147.136 393.820,147.766 394.000,148.400 394.000 C 149.034 394.000,149.664 394.180,149.800 394.400 C 149.936 394.620,150.667 394.800,151.424 394.800 C 152.181 394.800,152.800 394.980,152.800 395.200 C 152.800 395.420,153.700 395.600,154.800 395.600 C 155.900 395.600,156.800 395.780,156.800 396.000 C 156.800 396.220,157.509 396.400,158.376 396.400 C 159.243 396.400,160.064 396.580,160.200 396.800 C 160.336 397.020,161.337 397.200,162.424 397.200 C 163.511 397.200,164.400 397.380,164.400 397.600 C 164.400 397.822,165.467 398.000,166.800 398.000 C 168.133 398.000,169.200 398.178,169.200 398.400 C 169.200 398.628,170.389 398.800,171.967 398.800 C 173.824 398.800,174.788 398.964,174.900 399.300 C 175.031 399.693,180.409 399.800,200.000 399.800 C 219.591 399.800,224.969 399.693,225.100 399.300 C 225.212 398.964,226.176 398.800,228.033 398.800 C 229.611 398.800,230.800 398.628,230.800 398.400 C 230.800 398.178,231.867 398.000,233.200 398.000 C 234.533 398.000,235.600 397.822,235.600 397.600 C 235.600 397.380,236.489 397.200,237.576 397.200 C 238.663 397.200,239.664 397.020,239.800 396.800 C 239.936 396.580,240.757 396.400,241.624 396.400 C 242.491 396.400,243.200 396.220,243.200 396.000 C 243.200 395.780,244.100 395.600,245.200 395.600 C 246.300 395.600,247.200 395.420,247.200 395.200 C 247.200 394.980,247.920 394.800,248.800 394.800 C 249.680 394.800,250.400 394.620,250.400 394.400 C 250.400 394.180,251.030 394.000,251.800 394.000 C 252.570 394.000,253.200 393.820,253.200 393.600 C 253.200 393.380,253.830 393.200,254.600 393.200 C 255.370 393.200,256.000 393.020,256.000 392.800 C 256.000 392.580,256.630 392.400,257.400 392.400 C 258.170 392.400,258.800 392.243,258.800 392.052 C 258.800 391.860,259.741 391.578,260.890 391.426 C 262.040 391.273,263.165 391.010,263.390 390.840 C 263.616 390.671,265.194 390.097,266.898 389.566 C 268.602 389.035,269.997 388.465,269.998 388.300 C 269.999 388.135,270.362 388.000,270.805 388.000 C 271.248 388.000,271.968 387.820,272.405 387.600 C 272.842 387.380,273.558 387.020,273.995 386.800 C 274.432 386.580,275.062 386.400,275.395 386.400 C 275.728 386.400,276.000 386.220,276.000 386.000 C 276.000 385.780,276.349 385.600,276.776 385.600 C 277.203 385.600,277.664 385.420,277.800 385.200 C 277.936 384.980,278.487 384.800,279.024 384.800 C 279.561 384.800,280.000 384.620,280.000 384.400 C 280.000 384.180,280.360 384.000,280.800 384.000 C 281.240 384.000,281.600 383.820,281.600 383.600 C 281.600 383.380,281.960 383.200,282.400 383.200 C 282.840 383.200,283.200 383.020,283.200 382.800 C 283.200 382.580,283.472 382.400,283.805 382.400 C 284.138 382.400,284.723 382.240,285.105 382.044 C 285.487 381.848,286.700 381.263,287.800 380.744 C 288.900 380.225,289.860 379.665,289.933 379.500 C 290.007 379.335,290.412 379.200,290.833 379.200 C 291.255 379.200,291.600 379.020,291.600 378.800 C 291.600 378.580,291.960 378.400,292.400 378.400 C 292.840 378.400,293.200 378.220,293.200 378.000 C 293.200 377.780,293.436 377.600,293.725 377.600 C 294.013 377.600,294.636 377.240,295.108 376.800 C 295.580 376.360,296.244 376.000,296.583 376.000 C 296.922 376.000,297.200 375.820,297.200 375.600 C 297.200 375.380,297.479 375.200,297.820 375.200 C 298.447 375.200,300.832 374.099,301.200 373.639 C 301.310 373.502,302.255 372.958,303.300 372.432 C 304.345 371.905,305.200 371.366,305.200 371.235 C 305.200 371.103,305.785 370.740,306.500 370.428 C 307.215 370.116,308.091 369.532,308.447 369.130 C 308.803 368.729,309.348 368.400,309.659 368.400 C 309.969 368.400,310.483 368.040,310.800 367.600 C 311.117 367.160,311.657 366.800,312.000 366.800 C 312.343 366.800,312.883 366.440,313.200 366.000 C 313.517 365.560,314.057 365.200,314.400 365.200 C 314.743 365.200,315.283 364.840,315.600 364.400 C 315.917 363.960,316.407 363.600,316.688 363.600 C 316.970 363.600,317.200 363.420,317.200 363.200 C 317.200 362.980,317.430 362.800,317.712 362.800 C 317.993 362.800,318.483 362.440,318.800 362.000 C 319.117 361.560,319.580 361.200,319.829 361.200 C 320.078 361.200,320.846 360.660,321.537 360.000 C 322.228 359.340,322.929 358.800,323.097 358.800 C 323.264 358.800,324.188 358.080,325.151 357.200 C 326.113 356.320,327.054 355.600,327.240 355.600 C 327.426 355.600,328.349 354.833,329.289 353.895 C 330.230 352.957,331.630 351.745,332.400 351.201 C 333.170 350.658,335.561 348.410,337.713 346.207 C 339.865 344.003,341.810 342.020,342.034 341.800 C 348.386 335.579,351.200 332.684,351.200 332.371 C 351.200 332.157,352.190 330.993,353.400 329.783 C 354.610 328.573,355.600 327.429,355.600 327.242 C 355.600 327.054,356.320 326.113,357.200 325.151 C 358.080 324.188,358.800 323.264,358.800 323.097 C 358.800 322.929,359.340 322.228,360.000 321.537 C 360.660 320.846,361.200 320.078,361.200 319.829 C 361.200 319.580,361.560 319.117,362.000 318.800 C 362.440 318.483,362.800 318.020,362.800 317.771 C 362.800 317.522,363.340 316.754,364.000 316.063 C 364.660 315.372,365.200 314.575,365.200 314.292 C 365.200 314.009,365.560 313.517,366.000 313.200 C 366.440 312.883,366.800 312.343,366.800 312.000 C 366.800 311.657,367.160 311.117,367.600 310.800 C 369.864 309.168,367.829 308.348,357.800 306.850 C 343.151 304.661,325.330 306.112,311.788 310.595 C 305.914 312.539,305.584 312.877,305.705 316.835 C 305.845 321.422,303.906 323.103,296.144 325.124 C 287.560 327.358,283.135 330.708,271.214 343.992 C 266.192 349.589,262.478 351.555,253.408 353.421 C 249.420 354.241,248.021 353.421,249.920 351.375 C 253.599 347.411,260.014 338.450,262.723 333.489 C 264.606 330.040,267.008 326.583,270.045 322.946 C 280.113 310.891,285.185 300.407,285.208 291.600 C 285.220 286.895,285.842 283.675,287.968 277.295 C 289.934 271.397,291.200 266.650,291.200 265.175 C 291.200 264.129,289.488 264.146,286.490 265.222 C 285.231 265.674,283.390 266.313,282.400 266.642 C 281.410 266.971,280.240 267.391,279.800 267.575 C 276.379 269.004,269.611 269.504,266.979 268.523 C 266.331 268.281,264.450 267.694,262.800 267.219 C 261.150 266.744,259.387 266.185,258.881 265.978 C 256.354 264.939,250.894 265.653,246.628 267.582 C 242.816 269.304,241.780 269.600,239.563 269.600 C 237.948 269.600,236.570 269.303,235.112 268.641 C 227.196 265.045,224.553 264.926,212.200 267.611 C 211.320 267.803,209.385 268.148,207.900 268.380 C 206.415 268.611,203.985 269.009,202.500 269.264 C 198.190 270.005,183.479 269.909,180.800 269.123 C 169.537 265.816,155.601 254.650,147.200 242.200 C 144.012 237.477,141.383 236.908,137.238 240.045 C 134.133 242.396,132.269 242.769,129.784 241.540 C 127.705 240.512,127.775 240.600,122.858 232.872 C 118.843 226.561,111.629 219.600,109.104 219.600 C 108.790 219.600,108.405 219.471,108.247 219.314 C 107.135 218.202,99.519 217.625,97.000 218.462 M244.971 291.658 C 246.813 294.777,245.092 300.225,241.143 303.775 C 235.457 308.888,229.289 308.791,221.627 303.469 C 219.886 302.260,219.620 302.200,215.982 302.200 C 211.386 302.200,210.263 301.663,209.584 299.141 C 207.599 291.768,218.398 288.686,226.200 294.400 C 231.655 298.395,235.471 298.055,240.600 293.120 C 243.823 290.018,243.973 289.968,244.971 291.658 " stroke="none" fill="#fbfbfb" fill-rule="evenodd"></path><path id="path1" d="M225.600 41.589 C 221.874 41.956,215.843 43.278,212.400 44.482 C 205.754 46.807,196.730 48.401,190.225 48.399 C 184.525 48.397,180.450 47.848,167.718 45.363 C 141.077 40.164,126.978 47.759,121.611 70.200 C 120.927 73.060,120.206 76.030,120.009 76.800 C 119.812 77.570,119.448 79.100,119.200 80.200 C 118.952 81.300,118.592 82.830,118.400 83.600 C 118.208 84.370,117.872 85.810,117.653 86.800 C 116.973 89.881,116.472 92.078,115.646 95.600 C 115.208 97.470,114.618 99.990,114.336 101.200 C 110.962 115.679,118.743 125.485,140.200 133.798 C 148.472 137.003,156.167 139.097,171.000 142.179 C 198.897 147.975,205.041 151.480,207.933 163.243 C 209.729 170.553,212.774 176.112,217.053 179.892 C 224.067 186.088,214.071 188.582,197.400 184.795 C 196.520 184.595,194.180 184.064,192.200 183.614 C 190.220 183.165,187.970 182.620,187.200 182.403 C 176.603 179.412,173.315 178.431,168.233 176.744 C 161.309 174.445,154.901 172.138,153.905 171.585 C 153.523 171.373,153.026 171.200,152.801 171.200 C 152.576 171.200,151.538 170.822,150.496 170.360 C 149.453 169.898,148.240 169.377,147.800 169.201 C 142.960 167.269,138.670 165.287,131.600 161.718 C 109.034 150.326,100.285 137.485,105.682 123.676 C 106.248 122.229,106.382 121.422,106.103 121.143 C 104.854 119.894,80.994 119.757,73.400 120.955 C 41.183 126.036,31.746 144.385,50.097 166.264 C 59.053 176.941,69.028 185.463,85.289 196.331 C 88.309 198.349,90.884 200.000,91.011 200.000 C 91.139 200.000,92.304 200.720,93.600 201.600 C 94.896 202.480,96.073 203.200,96.216 203.200 C 96.359 203.200,96.954 203.534,97.538 203.942 C 106.740 210.376,142.707 227.216,160.579 233.460 C 162.130 234.002,163.760 234.608,164.200 234.808 C 165.107 235.220,174.293 238.279,180.000 240.071 C 186.760 242.193,194.469 244.246,203.800 246.410 C 219.967 250.159,240.152 252.406,257.600 252.399 C 307.373 252.379,344.692 236.473,358.018 209.600 C 372.022 181.360,356.841 158.452,317.081 147.828 C 312.864 146.701,312.934 146.672,311.823 150.000 C 309.368 157.360,304.473 163.292,297.574 167.270 C 292.932 169.946,292.476 168.810,295.846 162.974 C 297.788 159.613,299.715 155.721,301.179 152.200 C 303.840 145.804,302.000 131.974,296.416 116.400 C 296.218 115.850,295.489 113.780,294.796 111.800 C 293.463 107.994,289.388 97.153,288.781 95.800 C 288.584 95.360,287.625 93.110,286.649 90.800 C 279.802 74.596,271.906 60.416,266.202 54.083 C 257.790 44.743,242.220 39.951,225.600 41.589 M243.000 51.425 C 261.678 55.141,263.095 66.814,245.400 71.190 C 239.171 72.731,225.178 72.208,222.940 70.350 C 222.310 69.827,222.692 68.800,223.516 68.800 C 227.506 68.800,236.000 63.792,236.000 61.439 C 236.000 57.651,220.831 54.847,210.801 56.782 C 207.707 57.379,207.286 56.370,210.086 55.067 C 218.434 51.184,233.441 49.523,243.000 51.425 M142.000 75.505 C 142.550 75.889,144.129 77.309,145.509 78.659 C 150.608 83.650,153.282 84.115,169.600 82.845 C 185.482 81.609,194.788 83.815,196.109 89.127 C 197.058 92.944,193.053 94.631,180.800 95.577 C 166.148 96.707,161.013 98.217,155.638 102.977 C 150.679 107.368,146.628 105.623,141.069 96.702 C 140.692 96.098,139.774 95.349,139.027 95.037 C 135.944 93.749,132.527 88.796,132.098 84.994 C 131.342 78.289,137.519 72.370,142.000 75.505 M253.905 265.483 C 254.402 265.579,255.122 265.575,255.505 265.475 C 255.887 265.375,255.480 265.296,254.600 265.301 C 253.720 265.305,253.407 265.387,253.905 265.483 M187.916 269.897 C 189.299 269.975,191.459 269.974,192.716 269.895 C 193.972 269.816,192.840 269.752,190.200 269.753 C 187.560 269.753,186.532 269.818,187.916 269.897 M285.293 288.800 C 285.293 289.570,285.375 289.885,285.476 289.500 C 285.576 289.115,285.576 288.485,285.476 288.100 C 285.375 287.715,285.293 288.030,285.293 288.800 M216.505 291.487 C 217.114 291.579,218.014 291.577,218.505 291.482 C 218.997 291.387,218.500 291.311,217.400 291.314 C 216.300 291.317,215.897 291.395,216.505 291.487 M232.900 297.476 C 233.285 297.576,233.915 297.576,234.300 297.476 C 234.685 297.375,234.370 297.293,233.600 297.293 C 232.830 297.293,232.515 297.375,232.900 297.476 M241.381 303.300 L 239.800 305.000 241.500 303.419 C 243.081 301.948,243.384 301.600,243.081 301.600 C 243.016 301.600,242.251 302.365,241.381 303.300 M212.900 302.276 C 213.285 302.376,213.915 302.376,214.300 302.276 C 214.685 302.175,214.370 302.093,213.600 302.093 C 212.830 302.093,212.515 302.175,212.900 302.276 M338.300 305.882 C 338.795 305.978,339.605 305.978,340.100 305.882 C 340.595 305.787,340.190 305.709,339.200 305.709 C 338.210 305.709,337.805 305.787,338.300 305.882 M346.900 305.876 C 347.285 305.976,347.915 305.976,348.300 305.876 C 348.685 305.775,348.370 305.693,347.600 305.693 C 346.830 305.693,346.515 305.775,346.900 305.876 M278.800 335.400 C 277.828 336.390,277.123 337.200,277.233 337.200 C 277.343 337.200,278.228 336.390,279.200 335.400 C 280.172 334.410,280.877 333.600,280.767 333.600 C 280.657 333.600,279.772 334.410,278.800 335.400 " stroke="none" fill="#cb0404" fill-rule="evenodd"></path><path id="path2" d="M178.500 0.275 C 176.465 0.360,174.800 0.603,174.800 0.815 C 174.800 1.027,173.551 1.200,172.024 1.200 C 170.497 1.200,169.136 1.380,169.000 1.600 C 168.864 1.820,167.784 2.000,166.600 2.000 C 165.416 2.000,164.336 2.180,164.200 2.400 C 164.064 2.620,163.063 2.800,161.976 2.800 C 160.889 2.800,160.000 2.980,160.000 3.200 C 160.000 3.420,159.291 3.600,158.424 3.600 C 157.557 3.600,156.736 3.780,156.600 4.000 C 156.464 4.220,155.553 4.400,154.576 4.400 C 153.599 4.400,152.800 4.580,152.800 4.800 C 152.800 5.020,152.080 5.200,151.200 5.200 C 150.320 5.200,149.600 5.380,149.600 5.600 C 149.600 5.820,148.981 6.000,148.224 6.000 C 147.467 6.000,146.736 6.180,146.600 6.400 C 146.464 6.620,145.823 6.800,145.176 6.800 C 144.529 6.800,144.000 6.980,144.000 7.200 C 144.000 7.420,143.370 7.600,142.600 7.600 C 141.830 7.600,141.200 7.780,141.200 8.000 C 141.200 8.220,140.660 8.400,140.000 8.400 C 139.340 8.400,138.800 8.580,138.800 8.800 C 138.800 9.020,138.260 9.200,137.600 9.200 C 136.940 9.200,136.400 9.356,136.400 9.546 C 136.400 9.736,135.635 9.997,134.700 10.125 C 133.027 10.355,128.270 12.044,125.905 13.247 C 125.523 13.441,124.938 13.600,124.605 13.600 C 124.272 13.600,124.000 13.780,124.000 14.000 C 124.000 14.220,123.561 14.400,123.024 14.400 C 122.487 14.400,121.936 14.580,121.800 14.800 C 121.664 15.020,121.203 15.200,120.776 15.200 C 120.349 15.200,120.000 15.380,120.000 15.600 C 120.000 15.820,119.640 16.000,119.200 16.000 C 118.760 16.000,118.400 16.180,118.400 16.400 C 118.400 16.620,118.128 16.800,117.795 16.800 C 117.462 16.800,116.877 16.961,116.495 17.158 C 116.113 17.355,114.540 18.119,113.000 18.856 C 111.460 19.593,110.140 20.332,110.067 20.498 C 109.993 20.664,109.588 20.800,109.167 20.800 C 108.745 20.800,108.400 20.980,108.400 21.200 C 108.400 21.420,108.040 21.600,107.600 21.600 C 107.160 21.600,106.800 21.780,106.800 22.000 C 106.800 22.220,106.440 22.400,106.000 22.400 C 105.560 22.400,105.200 22.580,105.200 22.800 C 105.200 23.020,104.964 23.200,104.675 23.200 C 104.387 23.200,103.764 23.560,103.292 24.000 C 102.820 24.440,102.156 24.800,101.817 24.800 C 101.478 24.800,101.200 24.980,101.200 25.200 C 101.200 25.420,100.840 25.600,100.400 25.600 C 99.960 25.600,99.600 25.780,99.600 26.000 C 99.600 26.220,99.330 26.400,99.000 26.400 C 98.670 26.400,98.400 26.560,98.400 26.757 C 98.400 26.953,97.932 27.231,97.360 27.374 C 96.309 27.638,93.912 29.147,93.667 29.700 C 93.593 29.865,93.228 30.000,92.855 30.000 C 92.482 30.000,91.917 30.360,91.600 30.800 C 91.283 31.240,90.743 31.600,90.400 31.600 C 90.057 31.600,89.517 31.960,89.200 32.400 C 88.883 32.840,88.343 33.200,88.000 33.200 C 87.657 33.200,87.117 33.560,86.800 34.000 C 86.483 34.440,85.943 34.800,85.600 34.800 C 85.257 34.800,84.717 35.160,84.400 35.600 C 84.083 36.040,83.620 36.400,83.371 36.400 C 83.122 36.400,82.354 36.940,81.663 37.600 C 80.972 38.260,80.252 38.800,80.063 38.800 C 79.874 38.800,79.154 39.340,78.463 40.000 C 77.772 40.660,77.098 41.200,76.964 41.200 C 76.830 41.200,76.242 41.713,75.655 42.341 C 75.069 42.968,74.044 43.764,73.376 44.109 C 72.708 44.455,71.439 45.426,70.556 46.269 C 69.673 47.111,68.151 48.426,67.175 49.191 C 66.199 49.956,64.230 51.804,62.800 53.298 C 59.805 56.427,57.206 59.027,53.063 63.041 C 51.450 64.604,49.606 66.579,48.965 67.429 C 48.324 68.280,47.111 69.693,46.269 70.569 C 45.426 71.445,44.455 72.708,44.109 73.376 C 43.764 74.044,42.968 75.069,42.341 75.655 C 41.713 76.242,41.200 76.830,41.200 76.964 C 41.200 77.098,40.660 77.772,40.000 78.463 C 39.340 79.154,38.800 79.874,38.800 80.063 C 38.800 80.252,38.260 80.972,37.600 81.663 C 36.940 82.354,36.400 83.122,36.400 83.371 C 36.400 83.620,36.040 84.083,35.600 84.400 C 35.160 84.717,34.800 85.257,34.800 85.600 C 34.800 85.943,34.440 86.483,34.000 86.800 C 33.560 87.117,33.200 87.657,33.200 88.000 C 33.200 88.343,32.840 88.883,32.400 89.200 C 31.960 89.517,31.600 90.057,31.600 90.400 C 31.600 90.743,31.240 91.283,30.800 91.600 C 30.360 91.917,30.000 92.482,30.000 92.855 C 30.000 93.228,29.865 93.593,29.700 93.667 C 29.147 93.912,27.638 96.309,27.374 97.360 C 27.231 97.932,26.953 98.400,26.757 98.400 C 26.560 98.400,26.400 98.670,26.400 99.000 C 26.400 99.330,26.220 99.600,26.000 99.600 C 25.780 99.600,25.600 99.960,25.600 100.400 C 25.600 100.840,25.420 101.200,25.200 101.200 C 24.980 101.200,24.800 101.478,24.800 101.817 C 24.800 102.156,24.440 102.820,24.000 103.292 C 23.560 103.764,23.200 104.387,23.200 104.675 C 23.200 104.964,23.020 105.200,22.800 105.200 C 22.580 105.200,22.400 105.560,22.400 106.000 C 22.400 106.440,22.220 106.800,22.000 106.800 C 21.780 106.800,21.600 107.160,21.600 107.600 C 21.600 108.040,21.420 108.400,21.200 108.400 C 20.980 108.400,20.800 108.745,20.800 109.167 C 20.800 109.588,20.664 109.993,20.498 110.067 C 20.332 110.140,19.593 111.460,18.856 113.000 C 18.119 114.540,17.355 116.113,17.158 116.495 C 16.961 116.877,16.800 117.462,16.800 117.795 C 16.800 118.128,16.620 118.400,16.400 118.400 C 16.180 118.400,16.000 118.760,16.000 119.200 C 16.000 119.640,15.820 120.000,15.600 120.000 C 15.380 120.000,15.200 120.349,15.200 120.776 C 15.200 121.203,15.020 121.664,14.800 121.800 C 14.580 121.936,14.400 122.487,14.400 123.024 C 14.400 123.561,14.220 124.000,14.000 124.000 C 13.780 124.000,13.600 124.272,13.600 124.605 C 13.600 124.938,13.441 125.523,13.247 125.905 C 12.044 128.270,10.355 133.027,10.125 134.700 C 9.997 135.635,9.736 136.400,9.546 136.400 C 9.356 136.400,9.200 136.940,9.200 137.600 C 9.200 138.260,9.020 138.800,8.800 138.800 C 8.580 138.800,8.400 139.340,8.400 140.000 C 8.400 140.660,8.220 141.200,8.000 141.200 C 7.780 141.200,7.600 141.830,7.600 142.600 C 7.600 143.370,7.420 144.000,7.200 144.000 C 6.980 144.000,6.800 144.529,6.800 145.176 C 6.800 145.823,6.620 146.464,6.400 146.600 C 6.180 146.736,6.000 147.467,6.000 148.224 C 6.000 148.981,5.820 149.600,5.600 149.600 C 5.380 149.600,5.200 150.320,5.200 151.200 C 5.200 152.080,5.020 152.800,4.800 152.800 C 4.580 152.800,4.400 153.599,4.400 154.576 C 4.400 155.553,4.220 156.464,4.000 156.600 C 3.780 156.736,3.600 157.557,3.600 158.424 C 3.600 159.291,3.420 160.000,3.200 160.000 C 2.980 160.000,2.800 160.889,2.800 161.976 C 2.800 163.063,2.620 164.064,2.400 164.200 C 2.180 164.336,2.000 165.416,2.000 166.600 C 2.000 167.784,1.820 168.864,1.600 169.000 C 1.380 169.136,1.200 170.482,1.200 171.990 C 1.200 173.829,1.035 174.788,0.700 174.900 C -0.032 175.144,-0.032 224.856,0.700 225.100 C 1.035 225.212,1.200 226.171,1.200 228.010 C 1.200 229.518,1.380 230.864,1.600 231.000 C 1.820 231.136,2.000 232.216,2.000 233.400 C 2.000 234.584,2.180 235.664,2.400 235.800 C 2.620 235.936,2.800 236.937,2.800 238.024 C 2.800 239.111,2.980 240.000,3.200 240.000 C 3.420 240.000,3.600 240.799,3.600 241.776 C 3.600 242.753,3.780 243.664,4.000 243.800 C 4.220 243.936,4.400 244.757,4.400 245.624 C 4.400 246.491,4.580 247.200,4.800 247.200 C 5.020 247.200,5.200 247.920,5.200 248.800 C 5.200 249.680,5.380 250.400,5.600 250.400 C 5.820 250.400,6.000 251.019,6.000 251.776 C 6.000 252.533,6.180 253.264,6.400 253.400 C 6.620 253.536,6.800 254.177,6.800 254.824 C 6.800 255.471,6.980 256.000,7.200 256.000 C 7.420 256.000,7.600 256.630,7.600 257.400 C 7.600 258.170,7.780 258.800,8.000 258.800 C 8.220 258.800,8.400 259.340,8.400 260.000 C 8.400 260.660,8.580 261.200,8.800 261.200 C 9.020 261.200,9.200 261.721,9.200 262.357 C 9.200 263.954,9.444 264.000,18.018 264.000 C 34.365 264.000,43.757 262.183,56.000 256.651 C 66.308 251.994,74.737 253.382,79.828 260.575 C 84.911 267.754,85.941 268.991,88.318 270.771 C 94.403 275.328,105.140 276.223,108.548 272.457 C 110.934 269.821,109.418 266.525,104.735 264.167 C 101.150 262.362,96.011 256.663,95.998 254.479 C 95.997 254.325,95.232 253.273,94.298 252.139 C 93.364 251.006,91.567 248.828,90.305 247.301 C 83.601 239.188,83.618 229.118,90.349 222.387 C 92.419 220.317,93.243 219.792,96.519 218.456 C 105.391 214.839,118.563 223.323,125.811 237.323 C 128.390 242.305,132.682 243.331,137.000 240.000 C 141.132 236.812,143.705 237.312,147.117 241.968 C 154.985 252.702,164.983 261.823,173.394 265.937 C 180.848 269.584,181.536 269.710,192.634 269.464 C 201.381 269.270,203.981 269.042,209.400 267.993 C 218.961 266.144,219.861 266.000,223.536 265.736 C 227.299 265.465,228.333 265.694,233.930 268.038 C 239.114 270.209,240.721 270.147,246.318 267.563 C 247.703 266.923,249.062 266.400,249.338 266.400 C 249.614 266.400,250.045 266.195,250.295 265.945 C 250.950 265.290,257.061 265.296,259.200 265.954 C 261.394 266.628,265.316 267.861,267.160 268.456 C 267.908 268.698,270.068 268.907,271.960 268.922 C 275.011 268.945,276.550 268.669,279.400 267.585 C 279.840 267.418,280.830 267.064,281.600 266.800 C 282.370 266.536,283.360 266.165,283.800 265.976 C 285.157 265.393,289.703 264.000,290.246 264.000 C 291.993 264.000,291.510 267.068,288.205 276.969 C 286.150 283.123,285.940 284.094,285.572 289.128 C 284.638 301.939,281.949 308.118,271.643 321.139 C 270.189 322.976,268.201 325.496,267.224 326.739 C 266.247 327.983,264.136 331.291,262.533 334.091 C 259.518 339.358,257.458 342.305,252.250 348.800 C 248.684 353.247,248.676 353.423,252.042 353.327 C 255.033 353.242,258.084 352.445,261.896 350.753 C 262.828 350.339,263.693 350.000,263.818 350.000 C 264.838 350.000,269.363 346.092,272.269 342.700 C 281.359 332.090,287.197 327.550,294.449 325.450 C 295.632 325.107,297.642 324.524,298.916 324.154 C 303.926 322.697,306.127 320.292,305.717 316.724 C 305.284 312.958,306.116 312.173,312.800 310.040 C 328.232 305.113,350.585 304.365,366.296 308.248 C 368.747 308.854,370.000 308.567,370.000 307.401 C 370.000 307.260,370.540 306.359,371.200 305.400 C 371.860 304.441,372.400 303.541,372.400 303.400 C 372.400 303.259,372.943 302.355,373.606 301.391 C 374.270 300.427,374.922 299.089,375.056 298.419 C 375.190 297.748,375.457 297.200,375.650 297.200 C 375.843 297.200,376.000 296.964,376.000 296.675 C 376.000 296.387,376.360 295.764,376.800 295.292 C 377.240 294.820,377.600 294.156,377.600 293.817 C 377.600 293.478,377.780 293.200,378.000 293.200 C 378.220 293.200,378.400 292.840,378.400 292.400 C 378.400 291.960,378.580 291.600,378.800 291.600 C 379.020 291.600,379.200 291.255,379.200 290.833 C 379.200 290.412,379.336 290.007,379.502 289.933 C 379.668 289.860,380.407 288.540,381.144 287.000 C 381.881 285.460,382.645 283.887,382.842 283.505 C 383.039 283.123,383.200 282.538,383.200 282.205 C 383.200 281.872,383.380 281.600,383.600 281.600 C 383.820 281.600,384.000 281.240,384.000 280.800 C 384.000 280.360,384.180 280.000,384.400 280.000 C 384.620 280.000,384.800 279.651,384.800 279.224 C 384.800 278.797,384.980 278.336,385.200 278.200 C 385.420 278.064,385.600 277.513,385.600 276.976 C 385.600 276.439,385.780 276.000,386.000 276.000 C 386.220 276.000,386.400 275.728,386.400 275.395 C 386.400 275.062,386.580 274.432,386.800 273.995 C 387.020 273.558,387.380 272.842,387.600 272.405 C 387.820 271.968,388.000 271.248,388.000 270.805 C 388.000 270.362,388.180 270.000,388.400 270.000 C 388.620 270.000,388.800 269.651,388.800 269.224 C 388.800 268.797,388.980 268.336,389.200 268.200 C 389.420 268.064,389.600 267.524,389.600 267.000 C 389.600 266.476,389.780 265.936,390.000 265.800 C 390.220 265.664,390.400 265.124,390.400 264.600 C 390.400 264.076,390.567 263.544,390.772 263.417 C 390.977 263.291,391.267 262.200,391.418 260.994 C 391.569 259.787,391.851 258.800,392.046 258.800 C 392.241 258.800,392.400 258.170,392.400 257.400 C 392.400 256.630,392.580 256.000,392.800 256.000 C 393.020 256.000,393.200 255.370,393.200 254.600 C 393.200 253.830,393.380 253.200,393.600 253.200 C 393.820 253.200,394.000 252.570,394.000 251.800 C 394.000 251.030,394.180 250.400,394.400 250.400 C 394.620 250.400,394.800 249.680,394.800 248.800 C 394.800 247.920,394.980 247.200,395.200 247.200 C 395.420 247.200,395.600 246.401,395.600 245.424 C 395.600 244.447,395.780 243.536,396.000 243.400 C 396.220 243.264,396.400 242.443,396.400 241.576 C 396.400 240.709,396.580 240.000,396.800 240.000 C 397.020 240.000,397.200 239.111,397.200 238.024 C 397.200 236.937,397.380 235.936,397.600 235.800 C 397.820 235.664,398.000 234.483,398.000 233.176 C 398.000 231.859,398.178 230.800,398.400 230.800 C 398.628 230.800,398.800 229.611,398.800 228.033 C 398.800 226.176,398.964 225.212,399.300 225.100 C 399.693 224.969,399.800 219.591,399.800 200.000 C 399.800 180.409,399.693 175.031,399.300 174.900 C 398.965 174.788,398.800 173.829,398.800 171.990 C 398.800 170.482,398.620 169.136,398.400 169.000 C 398.180 168.864,398.000 167.784,398.000 166.600 C 398.000 165.416,397.820 164.336,397.600 164.200 C 397.380 164.064,397.200 163.164,397.200 162.200 C 397.200 161.236,397.020 160.336,396.800 160.200 C 396.580 160.064,396.400 159.254,396.400 158.400 C 396.400 157.546,396.220 156.736,396.000 156.600 C 395.780 156.464,395.600 155.553,395.600 154.576 C 395.600 153.599,395.420 152.800,395.200 152.800 C 394.980 152.800,394.800 152.080,394.800 151.200 C 394.800 150.320,394.620 149.600,394.400 149.600 C 394.180 149.600,394.000 148.970,394.000 148.200 C 394.000 147.430,393.820 146.800,393.600 146.800 C 393.380 146.800,393.200 146.170,393.200 145.400 C 393.200 144.630,393.020 144.000,392.800 144.000 C 392.580 144.000,392.400 143.370,392.400 142.600 C 392.400 141.830,392.243 141.200,392.052 141.200 C 391.860 141.200,391.578 140.259,391.426 139.110 C 391.273 137.960,391.010 136.835,390.840 136.610 C 390.671 136.384,390.097 134.806,389.566 133.102 C 389.035 131.398,388.465 130.003,388.300 130.002 C 388.135 130.001,388.000 129.638,388.000 129.195 C 388.000 128.752,387.820 128.032,387.600 127.595 C 387.380 127.158,387.020 126.442,386.800 126.005 C 386.580 125.568,386.400 124.938,386.400 124.605 C 386.400 124.272,386.220 124.000,386.000 124.000 C 385.780 124.000,385.600 123.561,385.600 123.024 C 385.600 122.487,385.420 121.936,385.200 121.800 C 384.980 121.664,384.800 121.203,384.800 120.776 C 384.800 120.349,384.620 120.000,384.400 120.000 C 384.180 120.000,384.000 119.640,384.000 119.200 C 384.000 118.760,383.820 118.400,383.600 118.400 C 383.380 118.400,383.200 118.051,383.200 117.624 C 383.200 117.197,383.020 116.736,382.800 116.600 C 382.580 116.464,382.400 116.003,382.400 115.576 C 382.400 115.149,382.220 114.800,382.000 114.800 C 381.780 114.800,381.600 114.566,381.600 114.280 C 381.600 113.544,380.659 111.607,380.300 111.603 C 380.135 111.601,380.000 111.240,380.000 110.800 C 380.000 110.360,379.820 110.000,379.600 110.000 C 379.380 110.000,379.200 109.640,379.200 109.200 C 379.200 108.760,379.020 108.400,378.800 108.400 C 378.580 108.400,378.400 108.055,378.400 107.633 C 378.400 107.212,378.265 106.807,378.100 106.733 C 377.935 106.660,377.367 105.745,376.837 104.700 C 376.308 103.655,375.745 102.800,375.587 102.800 C 375.429 102.800,375.190 102.252,375.056 101.581 C 374.922 100.911,374.309 99.606,373.694 98.681 C 373.079 97.757,372.327 96.508,372.024 95.907 C 371.720 95.305,371.141 94.458,370.736 94.023 C 370.331 93.589,370.000 92.996,370.000 92.705 C 370.000 92.414,369.640 91.917,369.200 91.600 C 368.760 91.283,368.400 90.743,368.400 90.400 C 368.400 90.057,368.040 89.517,367.600 89.200 C 367.160 88.883,366.800 88.343,366.800 88.000 C 366.800 87.657,366.440 87.117,366.000 86.800 C 365.560 86.483,365.200 85.943,365.200 85.600 C 365.200 85.257,364.840 84.717,364.400 84.400 C 363.960 84.083,363.600 83.593,363.600 83.312 C 363.600 83.030,363.420 82.800,363.200 82.800 C 362.980 82.800,362.800 82.570,362.800 82.288 C 362.800 82.007,362.440 81.517,362.000 81.200 C 361.560 80.883,361.200 80.420,361.200 80.171 C 361.200 79.922,360.660 79.154,360.000 78.463 C 359.340 77.772,358.800 77.032,358.800 76.817 C 358.800 76.602,358.170 75.797,357.400 75.027 C 356.630 74.257,356.000 73.459,356.000 73.254 C 356.000 73.049,355.145 72.002,354.100 70.927 C 353.055 69.853,351.676 68.278,351.035 67.428 C 350.394 66.578,348.558 64.604,346.955 63.041 C 345.351 61.479,343.446 59.601,342.720 58.869 C 335.537 51.622,332.232 48.400,331.985 48.400 C 331.823 48.400,330.744 47.511,329.586 46.424 C 328.429 45.337,326.974 44.238,326.354 43.981 C 325.734 43.724,325.118 43.173,324.986 42.757 C 324.854 42.341,324.488 42.000,324.173 42.000 C 323.858 42.000,323.600 41.820,323.600 41.600 C 323.600 41.380,323.418 41.200,323.196 41.200 C 322.974 41.200,322.228 40.660,321.537 40.000 C 320.846 39.340,320.126 38.800,319.937 38.800 C 319.748 38.800,319.028 38.260,318.337 37.600 C 317.646 36.940,316.878 36.400,316.629 36.400 C 316.380 36.400,315.917 36.040,315.600 35.600 C 315.283 35.160,314.743 34.800,314.400 34.800 C 314.057 34.800,313.517 34.440,313.200 34.000 C 312.883 33.560,312.343 33.200,312.000 33.200 C 311.657 33.200,311.117 32.840,310.800 32.400 C 310.483 31.960,309.943 31.600,309.600 31.600 C 309.257 31.600,308.717 31.240,308.400 30.800 C 308.083 30.360,307.671 30.000,307.484 30.000 C 307.297 30.000,306.392 29.498,305.472 28.884 C 304.552 28.270,303.037 27.415,302.105 26.984 C 301.172 26.553,300.407 26.065,300.405 25.900 C 300.402 25.735,300.040 25.600,299.600 25.600 C 299.160 25.600,298.800 25.420,298.800 25.200 C 298.800 24.980,298.522 24.800,298.183 24.800 C 297.844 24.800,297.180 24.440,296.708 24.000 C 296.236 23.560,295.613 23.200,295.325 23.200 C 295.036 23.200,294.800 23.020,294.800 22.800 C 294.800 22.580,294.440 22.400,294.000 22.400 C 293.560 22.400,293.200 22.220,293.200 22.000 C 293.200 21.780,292.855 21.600,292.433 21.600 C 292.012 21.600,291.607 21.464,291.533 21.298 C 291.460 21.132,290.140 20.392,288.600 19.653 C 287.060 18.914,285.108 17.969,284.262 17.554 C 283.416 17.139,282.471 16.800,282.162 16.800 C 281.853 16.800,281.600 16.620,281.600 16.400 C 281.600 16.180,281.240 16.000,280.800 16.000 C 280.360 16.000,280.000 15.820,280.000 15.600 C 280.000 15.380,279.651 15.200,279.224 15.200 C 278.797 15.200,278.336 15.020,278.200 14.800 C 278.064 14.580,277.513 14.400,276.976 14.400 C 276.439 14.400,276.000 14.220,276.000 14.000 C 276.000 13.780,275.728 13.600,275.395 13.600 C 275.062 13.600,274.477 13.441,274.095 13.247 C 273.713 13.052,272.950 12.716,272.400 12.500 C 271.850 12.284,270.950 11.912,270.400 11.674 C 268.469 10.837,265.562 10.000,264.586 10.000 C 264.044 10.000,263.600 9.820,263.600 9.600 C 263.600 9.380,263.060 9.200,262.400 9.200 C 261.740 9.200,261.200 9.020,261.200 8.800 C 261.200 8.580,260.660 8.400,260.000 8.400 C 259.340 8.400,258.800 8.220,258.800 8.000 C 258.800 7.780,258.170 7.600,257.400 7.600 C 256.630 7.600,256.000 7.420,256.000 7.200 C 256.000 6.980,255.471 6.800,254.824 6.800 C 254.177 6.800,253.536 6.620,253.400 6.400 C 253.264 6.180,252.533 6.000,251.776 6.000 C 251.019 6.000,250.400 5.820,250.400 5.600 C 250.400 5.380,249.680 5.200,248.800 5.200 C 247.920 5.200,247.200 5.020,247.200 4.800 C 247.200 4.580,246.401 4.400,245.424 4.400 C 244.447 4.400,243.536 4.220,243.400 4.000 C 243.264 3.780,242.443 3.600,241.576 3.600 C 240.709 3.600,240.000 3.420,240.000 3.200 C 240.000 2.980,239.111 2.800,238.024 2.800 C 236.937 2.800,235.936 2.620,235.800 2.400 C 235.664 2.180,234.584 2.000,233.400 2.000 C 232.216 2.000,231.136 1.820,231.000 1.600 C 230.864 1.380,229.518 1.200,228.010 1.200 C 226.196 1.200,225.211 1.033,225.103 0.708 C 224.941 0.223,187.959 -0.121,178.500 0.275 M243.955 42.384 C 262.944 46.310,272.365 56.993,286.649 90.800 C 287.625 93.110,288.584 95.360,288.781 95.800 C 289.388 97.153,293.463 107.994,294.796 111.800 C 295.489 113.780,296.218 115.850,296.416 116.400 C 302.000 131.974,303.840 145.804,301.179 152.200 C 299.715 155.721,297.788 159.613,295.846 162.974 C 292.476 168.810,292.932 169.946,297.574 167.270 C 304.473 163.292,309.368 157.360,311.823 150.000 C 312.934 146.672,312.864 146.701,317.081 147.828 C 356.841 158.452,372.022 181.360,358.018 209.600 C 349.434 226.910,330.897 239.798,304.468 246.830 C 276.135 254.369,237.426 254.207,203.800 246.410 C 194.469 244.246,186.760 242.193,180.000 240.071 C 174.293 238.279,165.107 235.220,164.200 234.808 C 163.760 234.608,162.130 234.002,160.579 233.460 C 142.707 227.216,106.740 210.376,97.538 203.942 C 96.954 203.534,96.359 203.200,96.216 203.200 C 96.073 203.200,94.896 202.480,93.600 201.600 C 92.304 200.720,91.139 200.000,91.011 200.000 C 90.884 200.000,88.309 198.349,85.289 196.331 C 69.028 185.463,59.053 176.941,50.097 166.264 C 31.746 144.385,41.183 126.036,73.400 120.955 C 80.994 119.757,104.854 119.894,106.103 121.143 C 106.382 121.422,106.248 122.229,105.682 123.676 C 100.285 137.485,109.034 150.326,131.600 161.718 C 138.670 165.287,142.960 167.269,147.800 169.201 C 148.240 169.377,149.453 169.898,150.496 170.360 C 151.538 170.822,152.576 171.200,152.801 171.200 C 153.026 171.200,153.523 171.373,153.905 171.585 C 154.901 172.138,161.309 174.445,168.233 176.744 C 173.315 178.431,176.603 179.412,187.200 182.403 C 187.970 182.620,190.220 183.165,192.200 183.614 C 194.180 184.064,196.520 184.595,197.400 184.795 C 203.649 186.214,211.352 186.979,213.919 186.436 C 220.489 185.045,221.201 183.557,217.053 179.892 C 212.774 176.112,209.729 170.553,207.933 163.243 C 205.041 151.480,198.897 147.975,171.000 142.179 C 126.022 132.833,109.713 121.039,114.336 101.200 C 114.618 99.990,115.208 97.470,115.646 95.600 C 116.472 92.078,116.973 89.881,117.653 86.800 C 117.872 85.810,118.208 84.370,118.400 83.600 C 118.592 82.830,118.952 81.300,119.200 80.200 C 119.448 79.100,119.812 77.570,120.009 76.800 C 120.206 76.030,120.927 73.060,121.611 70.200 C 126.978 47.759,141.077 40.164,167.718 45.363 C 180.450 47.848,184.525 48.397,190.225 48.399 C 196.730 48.401,205.754 46.807,212.400 44.482 C 221.520 41.292,234.500 40.429,243.955 42.384 M228.600 50.816 C 221.655 51.349,214.592 52.971,210.086 55.067 C 207.286 56.370,207.707 57.379,210.801 56.782 C 220.831 54.847,236.000 57.651,236.000 61.439 C 236.000 63.792,227.506 68.800,223.516 68.800 C 222.692 68.800,222.310 69.827,222.940 70.350 C 225.178 72.208,239.171 72.731,245.400 71.190 C 269.652 65.192,256.061 48.708,228.600 50.816 M135.828 75.650 C 129.862 80.342,131.788 92.012,139.027 95.037 C 139.774 95.349,140.692 96.098,141.069 96.702 C 146.628 105.623,150.679 107.368,155.638 102.977 C 161.013 98.217,166.148 96.707,180.800 95.577 C 193.053 94.631,197.058 92.944,196.109 89.127 C 194.788 83.815,185.482 81.609,169.600 82.845 C 153.282 84.115,150.608 83.650,145.509 78.659 C 141.227 74.469,138.433 73.600,135.828 75.650 M240.649 293.237 C 235.468 298.406,232.670 298.672,226.210 294.612 C 218.105 289.516,209.600 291.195,209.600 297.890 C 209.600 300.903,211.261 302.178,214.800 301.881 C 218.012 301.612,219.964 302.064,222.192 303.590 C 226.298 306.404,230.948 307.906,233.874 307.363 C 241.355 305.973,247.639 297.105,244.844 291.882 C 243.952 290.216,243.545 290.347,240.649 293.237 " stroke="none" fill="#040404" fill-rule="evenodd"></path></g></svg>